<svg width="214" height="112" viewBox="0 0 214 112" fill="none" xmlns="http://www.w3.org/2000/svg">
<rect x="78" y="22" width="58" height="58" rx="20" fill="#8FA7B3"/>
<path d="M108.158 67.3125H99.9045L106.77 34.6875H115.023L108.158 67.3125Z" fill="#D3E2E5"/>
<path d="M96.1748 67.3125H87.9684L93.2876 41.8491H101.496L96.1748 67.3125Z" fill="#D3E2E5"/>
<path d="M120.047 67.3125H111.84L117.16 41.8491H125.368L120.047 67.3125Z" fill="#D3E2E5"/>
<path d="M16.4697 105H14.1934L8.55078 95.9824V105H6.2832V92.2031H8.55078L14.2109 101.238V92.2031H16.4697V105ZM23.0703 105.176C22.127 105.176 21.3125 104.974 20.627 104.569C19.9414 104.159 19.4141 103.608 19.0449 102.917C18.6758 102.22 18.4912 101.44 18.4912 100.579V100.219C18.4912 99.2285 18.6787 98.3672 19.0537 97.6348C19.4287 96.8965 19.9414 96.3252 20.5918 95.9209C21.248 95.5166 21.9893 95.3145 22.8154 95.3145C23.7295 95.3145 24.4883 95.5137 25.0918 95.9121C25.6953 96.3047 26.1465 96.8525 26.4453 97.5557C26.7441 98.2529 26.8936 99.0615 26.8936 99.9814V100.922H20.6885C20.7471 101.643 20.9961 102.24 21.4355 102.715C21.875 103.184 22.4639 103.418 23.2021 103.418C23.7119 103.418 24.1631 103.318 24.5557 103.119C24.9482 102.92 25.291 102.633 25.584 102.258L26.7266 103.4C26.4219 103.852 25.9707 104.262 25.373 104.631C24.7754 104.994 24.0078 105.176 23.0703 105.176ZM22.8066 97.0635C22.2266 97.0635 21.7607 97.2686 21.4092 97.6787C21.0576 98.0889 20.832 98.6455 20.7324 99.3486H24.7402V99.1816C24.7285 98.8125 24.6553 98.4668 24.5205 98.1445C24.3916 97.8223 24.1865 97.5615 23.9053 97.3623C23.6299 97.1631 23.2637 97.0635 22.8066 97.0635ZM30.6816 105H28.502V95.4902H30.5498L30.6201 96.6152C30.9541 96.1992 31.3555 95.8799 31.8242 95.6572C32.293 95.4287 32.8145 95.3145 33.3887 95.3145C34.3027 95.3145 35.0352 95.584 35.5859 96.123C36.1426 96.6562 36.4209 97.5732 36.4209 98.874V105H34.2324V98.8564C34.2324 98.1943 34.0889 97.7373 33.8018 97.4854C33.5205 97.2275 33.1104 97.0986 32.5713 97.0986C32.1377 97.0986 31.7598 97.2041 31.4375 97.415C31.1211 97.6201 30.8691 97.8984 30.6816 98.25V105ZM40.71 105H38.5303V91.5H40.71V96.5537C41.0322 96.1611 41.416 95.8564 41.8613 95.6396C42.3125 95.4229 42.8076 95.3145 43.3467 95.3145C44.2842 95.3145 45.0371 95.5898 45.6055 96.1406C46.1738 96.6855 46.458 97.6084 46.458 98.9092V105H44.2695V98.8916C44.2695 98.2236 44.126 97.7578 43.8389 97.4941C43.5518 97.2305 43.1387 97.0986 42.5996 97.0986C42.1543 97.0986 41.7734 97.2012 41.457 97.4062C41.1465 97.6055 40.8975 97.875 40.71 98.2148V105ZM54.2803 95.4902H56.46V105H54.4033L54.3506 104.042C54.0518 104.399 53.6826 104.678 53.2432 104.877C52.8037 105.076 52.2822 105.176 51.6787 105.176C50.7412 105.176 49.9824 104.9 49.4023 104.35C48.8223 103.799 48.5322 102.894 48.5322 101.634V95.4902H50.7119V101.651C50.7119 102.313 50.8613 102.771 51.1602 103.022C51.459 103.269 51.8135 103.392 52.2236 103.392C52.7627 103.392 53.1963 103.295 53.5244 103.102C53.8584 102.902 54.1104 102.636 54.2803 102.302V95.4902ZM60.7842 105H58.5957V95.4902H60.6523L60.7227 96.5273C61.0391 96.1465 61.4258 95.8506 61.8828 95.6396C62.3457 95.4229 62.8789 95.3145 63.4824 95.3145C64.0684 95.3145 64.5869 95.4316 65.0381 95.666C65.4893 95.9004 65.8379 96.2725 66.084 96.7822C66.3945 96.3369 66.793 95.9824 67.2793 95.7188C67.7715 95.4492 68.3457 95.3145 69.002 95.3145C69.9688 95.3145 70.7275 95.5869 71.2783 96.1318C71.835 96.6768 72.1133 97.5879 72.1133 98.8652V105H69.9248V98.8477C69.9248 98.1504 69.7725 97.6846 69.4678 97.4502C69.1689 97.2158 68.7646 97.0986 68.2549 97.0986C67.7803 97.0986 67.3906 97.2246 67.0859 97.4766C66.7812 97.7285 66.5674 98.0566 66.4443 98.4609C66.4443 98.5254 66.4443 98.5928 66.4443 98.6631V105H64.2646V98.8652C64.2646 98.1914 64.1123 97.7285 63.8076 97.4766C63.5088 97.2246 63.1016 97.0986 62.5859 97.0986C62.1348 97.0986 61.7627 97.1953 61.4697 97.3887C61.1768 97.5762 60.9482 97.834 60.7842 98.1621V105ZM80.9287 108.656H78.749V95.4902H80.7617L80.8496 96.4658C81.1484 96.0967 81.5088 95.8125 81.9307 95.6133C82.3525 95.4141 82.8389 95.3145 83.3896 95.3145C84.1924 95.3145 84.8691 95.5166 85.4199 95.9209C85.9707 96.3252 86.3867 96.8906 86.668 97.6172C86.9551 98.3438 87.0986 99.1875 87.0986 100.148V100.333C87.0986 101.259 86.9551 102.088 86.668 102.82C86.3867 103.547 85.9707 104.121 85.4199 104.543C84.875 104.965 84.207 105.176 83.416 105.176C82.877 105.176 82.4023 105.085 81.9922 104.903C81.582 104.722 81.2275 104.464 80.9287 104.13V108.656ZM84.9189 100.148C84.9189 99.5801 84.8457 99.0674 84.6992 98.6104C84.5586 98.1475 84.3301 97.7812 84.0137 97.5117C83.7031 97.2363 83.2959 97.0986 82.792 97.0986C82.3291 97.0986 81.9453 97.1953 81.6406 97.3887C81.3359 97.582 81.0986 97.8457 80.9287 98.1797V102.319C81.0986 102.647 81.333 102.914 81.6318 103.119C81.9365 103.324 82.3291 103.427 82.8096 103.427C83.3135 103.427 83.7207 103.286 84.0312 103.005C84.3418 102.724 84.5674 102.349 84.708 101.88C84.8486 101.411 84.9189 100.896 84.9189 100.333V100.148ZM88.4697 100.157C88.4697 99.2314 88.6455 98.4053 88.9971 97.6787C89.3486 96.9463 89.8525 96.3691 90.5088 95.9473C91.1709 95.5254 91.9648 95.3145 92.8906 95.3145C93.8281 95.3145 94.6279 95.5254 95.29 95.9473C95.9521 96.3691 96.4561 96.9463 96.8018 97.6787C97.1533 98.4053 97.3291 99.2314 97.3291 100.157V100.342C97.3291 101.262 97.1533 102.088 96.8018 102.82C96.4561 103.547 95.9521 104.121 95.29 104.543C94.6338 104.965 93.8398 105.176 92.9082 105.176C91.9766 105.176 91.1797 104.965 90.5176 104.543C89.8555 104.121 89.3486 103.547 88.9971 102.82C88.6455 102.088 88.4697 101.262 88.4697 100.342V100.157ZM90.6494 100.342C90.6494 100.904 90.7256 101.42 90.8779 101.889C91.0361 102.352 91.2822 102.724 91.6162 103.005C91.9502 103.286 92.3809 103.427 92.9082 103.427C93.4297 103.427 93.8545 103.286 94.1826 103.005C94.5166 102.724 94.7598 102.352 94.9121 101.889C95.0703 101.42 95.1494 100.904 95.1494 100.342V100.157C95.1494 99.6064 95.0703 99.0967 94.9121 98.6279C94.7598 98.1592 94.5166 97.7812 94.1826 97.4941C93.8486 97.207 93.418 97.0635 92.8906 97.0635C92.3691 97.0635 91.9414 97.207 91.6074 97.4941C91.2793 97.7812 91.0361 98.1592 90.8779 98.6279C90.7256 99.0967 90.6494 99.6064 90.6494 100.157V100.342ZM104.413 102.407C104.413 102.208 104.36 102.026 104.255 101.862C104.149 101.692 103.95 101.54 103.657 101.405C103.364 101.271 102.937 101.142 102.374 101.019C101.366 100.808 100.546 100.485 99.9131 100.052C99.2861 99.6182 98.9727 99 98.9727 98.1973C98.9727 97.6816 99.1191 97.207 99.4121 96.7734C99.7109 96.334 100.136 95.9824 100.687 95.7188C101.237 95.4492 101.894 95.3145 102.655 95.3145C103.452 95.3145 104.138 95.4492 104.712 95.7188C105.286 95.9824 105.726 96.3428 106.03 96.7998C106.341 97.251 106.496 97.7637 106.496 98.3379H104.316C104.316 97.9629 104.176 97.6348 103.895 97.3535C103.619 97.0664 103.203 96.9229 102.646 96.9229C102.125 96.9229 101.735 97.043 101.478 97.2832C101.22 97.5176 101.091 97.79 101.091 98.1006C101.091 98.4111 101.223 98.6631 101.486 98.8564C101.756 99.0439 102.269 99.2168 103.024 99.375C104.114 99.6035 104.973 99.9316 105.6 100.359C106.232 100.781 106.549 101.429 106.549 102.302C106.549 102.858 106.388 103.354 106.065 103.787C105.749 104.221 105.301 104.561 104.721 104.807C104.141 105.053 103.461 105.176 102.682 105.176C101.809 105.176 101.073 105.021 100.476 104.71C99.8779 104.399 99.4238 104.001 99.1133 103.515C98.8086 103.028 98.6562 102.527 98.6562 102.012H100.757C100.786 102.58 101 102.981 101.398 103.216C101.797 103.45 102.233 103.567 102.708 103.567C103.265 103.567 103.687 103.459 103.974 103.242C104.267 103.02 104.413 102.741 104.413 102.407ZM112.789 97.0986H111.102V102.319C111.102 102.753 111.192 103.037 111.374 103.172C111.556 103.301 111.799 103.365 112.104 103.365C112.25 103.365 112.391 103.356 112.525 103.339C112.66 103.321 112.769 103.304 112.851 103.286V104.965C112.675 105.023 112.47 105.073 112.235 105.114C112.001 105.155 111.731 105.176 111.427 105.176C110.694 105.176 110.094 104.974 109.625 104.569C109.156 104.159 108.922 103.462 108.922 102.478V97.0986H107.393V95.4902H108.922V93.1611H111.102V95.4902H112.789V97.0986ZM123.09 105.176C122.146 105.176 121.332 104.974 120.646 104.569C119.961 104.159 119.434 103.608 119.064 102.917C118.695 102.22 118.511 101.44 118.511 100.579V100.219C118.511 99.2285 118.698 98.3672 119.073 97.6348C119.448 96.8965 119.961 96.3252 120.611 95.9209C121.268 95.5166 122.009 95.3145 122.835 95.3145C123.749 95.3145 124.508 95.5137 125.111 95.9121C125.715 96.3047 126.166 96.8525 126.465 97.5557C126.764 98.2529 126.913 99.0615 126.913 99.9814V100.922H120.708C120.767 101.643 121.016 102.24 121.455 102.715C121.895 103.184 122.483 103.418 123.222 103.418C123.731 103.418 124.183 103.318 124.575 103.119C124.968 102.92 125.311 102.633 125.604 102.258L126.746 103.4C126.441 103.852 125.99 104.262 125.393 104.631C124.795 104.994 124.027 105.176 123.09 105.176ZM122.826 97.0635C122.246 97.0635 121.78 97.2686 121.429 97.6787C121.077 98.0889 120.852 98.6455 120.752 99.3486H124.76V99.1816C124.748 98.8125 124.675 98.4668 124.54 98.1445C124.411 97.8223 124.206 97.5615 123.925 97.3623C123.649 97.1631 123.283 97.0635 122.826 97.0635ZM130.701 105H128.521V95.4902H130.569L130.64 96.6152C130.974 96.1992 131.375 95.8799 131.844 95.6572C132.312 95.4287 132.834 95.3145 133.408 95.3145C134.322 95.3145 135.055 95.584 135.605 96.123C136.162 96.6562 136.44 97.5732 136.44 98.874V105H134.252V98.8564C134.252 98.1943 134.108 97.7373 133.821 97.4854C133.54 97.2275 133.13 97.0986 132.591 97.0986C132.157 97.0986 131.779 97.2041 131.457 97.415C131.141 97.6201 130.889 97.8984 130.701 98.25V105ZM142.487 103.427C142.997 103.427 143.425 103.277 143.771 102.979C144.122 102.68 144.312 102.296 144.342 101.827H146.398C146.381 102.454 146.196 103.022 145.845 103.532C145.493 104.036 145.027 104.438 144.447 104.736C143.867 105.029 143.22 105.176 142.505 105.176C141.538 105.176 140.732 104.962 140.088 104.534C139.449 104.101 138.972 103.523 138.655 102.803C138.339 102.076 138.181 101.273 138.181 100.395V100.096C138.181 99.2168 138.339 98.417 138.655 97.6963C138.972 96.9697 139.449 96.3926 140.088 95.9648C140.732 95.5312 141.538 95.3145 142.505 95.3145C143.267 95.3145 143.938 95.4668 144.518 95.7715C145.098 96.0703 145.552 96.4922 145.88 97.0371C146.208 97.5762 146.381 98.2031 146.398 98.918H144.342C144.318 98.4082 144.143 97.9717 143.814 97.6084C143.492 97.2451 143.047 97.0635 142.479 97.0635C141.916 97.0635 141.479 97.2129 141.169 97.5117C140.864 97.8047 140.653 98.1826 140.536 98.6455C140.419 99.1084 140.36 99.5918 140.36 100.096V100.395C140.36 100.91 140.419 101.399 140.536 101.862C140.653 102.325 140.864 102.703 141.169 102.996C141.474 103.283 141.913 103.427 142.487 103.427ZM147.603 100.157C147.603 99.2314 147.778 98.4053 148.13 97.6787C148.481 96.9463 148.985 96.3691 149.642 95.9473C150.304 95.5254 151.098 95.3145 152.023 95.3145C152.961 95.3145 153.761 95.5254 154.423 95.9473C155.085 96.3691 155.589 96.9463 155.935 97.6787C156.286 98.4053 156.462 99.2314 156.462 100.157V100.342C156.462 101.262 156.286 102.088 155.935 102.82C155.589 103.547 155.085 104.121 154.423 104.543C153.767 104.965 152.973 105.176 152.041 105.176C151.109 105.176 150.312 104.965 149.65 104.543C148.988 104.121 148.481 103.547 148.13 102.82C147.778 102.088 147.603 101.262 147.603 100.342V100.157ZM149.782 100.342C149.782 100.904 149.858 101.42 150.011 101.889C150.169 102.352 150.415 102.724 150.749 103.005C151.083 103.286 151.514 103.427 152.041 103.427C152.562 103.427 152.987 103.286 153.315 103.005C153.649 102.724 153.893 102.352 154.045 101.889C154.203 101.42 154.282 100.904 154.282 100.342V100.157C154.282 99.6064 154.203 99.0967 154.045 98.6279C153.893 98.1592 153.649 97.7812 153.315 97.4941C152.981 97.207 152.551 97.0635 152.023 97.0635C151.502 97.0635 151.074 97.207 150.74 97.4941C150.412 97.7812 150.169 98.1592 150.011 98.6279C149.858 99.0967 149.782 99.6064 149.782 100.157V100.342ZM160.391 105H158.211V95.4902H160.259L160.329 96.6152C160.663 96.1992 161.064 95.8799 161.533 95.6572C162.002 95.4287 162.523 95.3145 163.098 95.3145C164.012 95.3145 164.744 95.584 165.295 96.123C165.852 96.6562 166.13 97.5732 166.13 98.874V105H163.941V98.8564C163.941 98.1943 163.798 97.7373 163.511 97.4854C163.229 97.2275 162.819 97.0986 162.28 97.0986C161.847 97.0986 161.469 97.2041 161.146 97.415C160.83 97.6201 160.578 97.8984 160.391 98.25V105ZM172.678 97.0986H170.99V102.319C170.99 102.753 171.081 103.037 171.263 103.172C171.444 103.301 171.688 103.365 171.992 103.365C172.139 103.365 172.279 103.356 172.414 103.339C172.549 103.321 172.657 103.304 172.739 103.286V104.965C172.563 105.023 172.358 105.073 172.124 105.114C171.89 105.155 171.62 105.176 171.315 105.176C170.583 105.176 169.982 104.974 169.514 104.569C169.045 104.159 168.811 103.462 168.811 102.478V97.0986H167.281V95.4902H168.811V93.1611H170.99V95.4902H172.678V97.0986ZM176.466 105H174.286V95.4902H176.36L176.422 96.5889C176.662 96.1963 176.961 95.8857 177.318 95.6572C177.682 95.4287 178.106 95.3145 178.593 95.3145C178.716 95.3145 178.854 95.3262 179.006 95.3496C179.158 95.373 179.272 95.3994 179.349 95.4287L179.331 97.4941C179.196 97.4766 179.053 97.4619 178.9 97.4502C178.754 97.4326 178.607 97.4238 178.461 97.4238C177.945 97.4238 177.523 97.5234 177.195 97.7227C176.867 97.9219 176.624 98.2031 176.466 98.5664V105ZM185.844 98.5752C185.844 98.083 185.706 97.6904 185.431 97.3975C185.161 97.1045 184.751 96.958 184.2 96.958C183.702 96.958 183.304 97.0811 183.005 97.3271C182.712 97.5732 182.565 97.8809 182.565 98.25H180.386C180.386 97.7402 180.547 97.2627 180.869 96.8174C181.191 96.3662 181.646 96.0029 182.231 95.7275C182.823 95.4521 183.521 95.3145 184.323 95.3145C185.396 95.3145 186.28 95.5869 186.978 96.1318C187.675 96.6768 188.023 97.4971 188.023 98.5928V102.785C188.023 103.652 188.146 104.341 188.393 104.851V105H186.16C186.061 104.777 185.981 104.476 185.923 104.095C185.647 104.394 185.299 104.648 184.877 104.859C184.461 105.07 183.969 105.176 183.4 105.176C182.779 105.176 182.226 105.053 181.739 104.807C181.253 104.561 180.869 104.224 180.588 103.796C180.312 103.368 180.175 102.882 180.175 102.337C180.175 101.329 180.553 100.556 181.309 100.017C182.064 99.4775 183.137 99.208 184.525 99.208H185.844V98.5752ZM183.831 103.444C184.323 103.444 184.745 103.33 185.097 103.102C185.448 102.867 185.697 102.606 185.844 102.319V100.553H184.684C183.91 100.553 183.327 100.696 182.935 100.983C182.548 101.265 182.354 101.648 182.354 102.135C182.354 102.51 182.48 102.823 182.732 103.075C182.99 103.321 183.356 103.444 183.831 103.444ZM189.834 100.166C189.834 99.2051 189.983 98.3613 190.282 97.6348C190.587 96.9023 191.018 96.334 191.574 95.9297C192.131 95.5195 192.799 95.3145 193.578 95.3145C194.094 95.3145 194.551 95.4082 194.949 95.5957C195.354 95.7773 195.705 96.0381 196.004 96.3779V91.5H198.184V105H196.206L196.101 103.989C195.802 104.364 195.441 104.657 195.02 104.868C194.598 105.073 194.111 105.176 193.561 105.176C192.793 105.176 192.131 104.968 191.574 104.552C191.018 104.13 190.587 103.556 190.282 102.829C189.983 102.103 189.834 101.276 189.834 100.351V100.166ZM192.014 100.351C192.014 100.913 192.084 101.426 192.225 101.889C192.365 102.346 192.588 102.712 192.893 102.987C193.203 103.257 193.61 103.392 194.114 103.392C194.583 103.392 194.97 103.286 195.274 103.075C195.585 102.864 195.828 102.586 196.004 102.24V98.2236C195.828 97.8779 195.585 97.6055 195.274 97.4062C194.97 97.2012 194.589 97.0986 194.132 97.0986C193.628 97.0986 193.221 97.2363 192.91 97.5117C192.6 97.7871 192.371 98.1562 192.225 98.6191C192.084 99.082 192.014 99.5977 192.014 100.166V100.351ZM199.985 100.157C199.985 99.2314 200.161 98.4053 200.513 97.6787C200.864 96.9463 201.368 96.3691 202.024 95.9473C202.687 95.5254 203.48 95.3145 204.406 95.3145C205.344 95.3145 206.144 95.5254 206.806 95.9473C207.468 96.3691 207.972 96.9463 208.317 97.6787C208.669 98.4053 208.845 99.2314 208.845 100.157V100.342C208.845 101.262 208.669 102.088 208.317 102.82C207.972 103.547 207.468 104.121 206.806 104.543C206.149 104.965 205.355 105.176 204.424 105.176C203.492 105.176 202.695 104.965 202.033 104.543C201.371 104.121 200.864 103.547 200.513 102.82C200.161 102.088 199.985 101.262 199.985 100.342V100.157ZM202.165 100.342C202.165 100.904 202.241 101.42 202.394 101.889C202.552 102.352 202.798 102.724 203.132 103.005C203.466 103.286 203.896 103.427 204.424 103.427C204.945 103.427 205.37 103.286 205.698 103.005C206.032 102.724 206.275 102.352 206.428 101.889C206.586 101.42 206.665 100.904 206.665 100.342V100.157C206.665 99.6064 206.586 99.0967 206.428 98.6279C206.275 98.1592 206.032 97.7812 205.698 97.4941C205.364 97.207 204.934 97.0635 204.406 97.0635C203.885 97.0635 203.457 97.207 203.123 97.4941C202.795 97.7812 202.552 98.1592 202.394 98.6279C202.241 99.0967 202.165 99.6064 202.165 100.157V100.342Z" fill="#8FA7B3"/>
</svg>
